<svg width="66" height="55" viewBox="0 0 66 55" fill="currentColor" xmlns="http://www.w3.org/2000/svg">
<path d="M0.375452 45.419L12.702 31.6804C8.3978 30.7655 5.0389 28.4497 2.6253 24.7331C0.2117 21.0165 -0.537657 17.0061 0.37723 12.7019C1.29212 8.39768 3.60787 5.03878 7.32449 2.62518C11.0411 0.211577 15.0515 -0.537778 19.3557 0.377108C23.6599 1.29199 27.0188 3.60775 29.4324 7.32437C31.846 11.041 32.5954 15.0514 31.6805 19.3556C31.3617 20.8555 30.8877 22.2032 30.2588 23.3987C29.6298 24.5941 28.8318 25.7026 27.865 26.724L9.37514 47.332L0.375452 45.419ZM35.5916 52.9045L47.9182 39.1658C43.614 38.2509 40.2551 35.9352 37.8415 32.2185C35.4279 28.5019 34.6785 24.4915 35.5934 20.1873C36.5083 15.8831 38.824 12.5242 42.5406 10.1106C46.2573 7.69701 50.2677 6.94765 54.5719 7.86254C58.8761 8.77743 62.235 11.0932 64.6486 14.8098C67.0622 18.5264 67.8115 22.5368 66.8966 26.841C66.5778 28.341 66.1039 29.6887 65.4749 30.8841C64.8459 32.0796 64.048 33.188 63.0811 34.2094L44.5913 54.8174L35.5916 52.9045ZM14.7813 21.8981C14.7813 21.8981 15.1889 21.9847 16.0041 22.158C16.8193 22.3313 17.9188 21.9686 19.3026 21.0699C20.6865 20.1712 21.5517 18.9067 21.8982 17.2763C22.2448 15.6459 21.9687 14.1388 21.07 12.755C20.1713 11.3711 18.9068 10.5059 17.2764 10.1594C15.646 9.81283 14.1389 10.0889 12.7551 10.9876C11.3712 11.8863 10.506 13.1508 10.1595 14.7812C9.81295 16.4115 10.089 17.9187 10.9877 19.3025C11.8864 20.6863 13.1509 21.5515 14.7813 21.8981ZM49.9974 29.3835C49.9974 29.3835 50.405 29.4702 51.2202 29.6434C52.0354 29.8167 53.1349 29.454 54.5188 28.5553C55.9026 27.6566 56.7678 26.3921 57.1144 24.7617C57.4609 23.1314 57.1849 21.6242 56.2862 20.2404C55.3875 18.8566 54.123 17.9914 52.4926 17.6448C50.8622 17.2983 49.3551 17.5743 47.9712 18.473C46.5874 19.3717 45.7222 20.6362 45.3757 22.2666C45.0291 23.897 45.3052 25.4041 46.2039 26.7879C47.1025 28.1718 48.3671 29.037 49.9974 29.3835Z" />
</svg>
