<svg width="10" height="20" viewBox="0 0 10 20" fill="currentColor" xmlns="http://www.w3.org/2000/svg">
<path d="M0 -0.000108719H9.72222V7.63184C9.72222 8.00452 9.6412 8.3367 9.47917 8.62836C9.31713 8.92003 9.09028 9.15498 8.79861 9.33322L5.34722 11.3749L6.02778 13.611H9.72222L6.70833 15.7499L7.875 19.4443L4.86111 17.1596L1.84722 19.4443L3.01389 15.7499L0 13.611H3.69444L4.375 11.3749L0.923611 9.33322C0.631944 9.15498 0.405093 8.92003 0.243056 8.62836C0.0810185 8.3367 0 8.00452 0 7.63184V-0.000108719ZM1.94444 1.94434V7.63184L3.88889 8.7985V1.94434H1.94444ZM7.77778 1.94434H5.83333V8.7985L7.77778 7.63184V1.94434Z" />
</svg>
