<svg width="12" height="12" viewBox="0 0 12 12" fill="currentColor" xmlns="http://www.w3.org/2000/svg">
<path d="M11.1032 11.1033L8.88255 8.88263H3.33096C3.02562 8.88263 2.76423 8.77392 2.54679 8.55648C2.32936 8.33904 2.22064 8.07765 2.22064 7.77232V7.21716H8.32739C8.63273 7.21716 8.89411 7.10844 9.11155 6.891C9.32899 6.67356 9.43771 6.41218 9.43771 6.10684V2.22072H9.99287C10.2982 2.22072 10.5596 2.32944 10.777 2.54688C10.9945 2.76432 11.1032 3.0257 11.1032 3.33104V11.1033ZM1.11032 5.64883L1.76263 4.99652H7.21707V1.1104H1.11032V5.64883ZM0 8.32748V1.1104C0 0.805066 0.108719 0.543679 0.326156 0.326241C0.543593 0.108804 0.804981 8.58307e-05 1.11032 8.58307e-05H7.21707C7.52241 8.58307e-05 7.7838 0.108804 8.00123 0.326241C8.21867 0.543679 8.32739 0.805066 8.32739 1.1104V4.99652C8.32739 5.30186 8.21867 5.56324 8.00123 5.78068C7.7838 5.99812 7.52241 6.10684 7.21707 6.10684H2.22064L0 8.32748Z" />
</svg>
