<svg width="66" height="48" viewBox="0 0 66 48" fill="currentColor" xmlns="http://www.w3.org/2000/svg">
<path d="M38.8194 26.8751C36.331 26.8751 34.2159 26.0041 32.474 24.2622C30.7321 22.5203 29.8611 20.4051 29.8611 17.9167C29.8611 15.4283 30.7321 13.3131 32.474 11.5712C34.2159 9.82934 36.331 8.95839 38.8194 8.95839C41.3079 8.95839 43.423 9.82934 45.1649 11.5712C46.9068 13.3131 47.7778 15.4283 47.7778 17.9167C47.7778 20.4051 46.9068 22.5203 45.1649 24.2622C43.423 26.0041 41.3079 26.8751 38.8194 26.8751ZM17.9167 35.8334C16.2743 35.8334 14.8683 35.2486 13.6988 34.079C12.5292 32.9095 11.9444 31.5035 11.9444 29.8612V5.97228C11.9444 4.32992 12.5292 2.92395 13.6988 1.75439C14.8683 0.584835 16.2743 5.34058e-05 17.9167 5.34058e-05H59.7222C61.3646 5.34058e-05 62.7705 0.584835 63.9401 1.75439C65.1097 2.92395 65.6944 4.32992 65.6944 5.97228V29.8612C65.6944 31.5035 65.1097 32.9095 63.9401 34.079C62.7705 35.2486 61.3646 35.8334 59.7222 35.8334H17.9167ZM23.8889 29.8612H53.75C53.75 28.2188 54.3348 26.8128 55.5043 25.6433C56.6739 24.4737 58.0799 23.8889 59.7222 23.8889V11.9445C58.0799 11.9445 56.6739 11.3597 55.5043 10.1902C54.3348 9.0206 53.75 7.61464 53.75 5.97228H23.8889C23.8889 7.61464 23.3041 9.0206 22.1345 10.1902C20.965 11.3597 19.559 11.9445 17.9167 11.9445V23.8889C19.559 23.8889 20.965 24.4737 22.1345 25.6433C23.3041 26.8128 23.8889 28.2188 23.8889 29.8612ZM56.7361 47.7778H5.97222C4.32986 47.7778 2.9239 47.1931 1.75434 46.0235C0.58478 44.8539 0 43.448 0 41.8056V8.95839H5.97222V41.8056H56.7361V47.7778Z" fill="#00FF9D"/>
</svg>
