<svg width="23" height="23" viewBox="0 0 23 23" fill="currentColor" xmlns="http://www.w3.org/2000/svg">
<path d="M11.25 17.5H13.75V5H8.75V7.5H11.25V17.5ZM2.5 22.5C1.8125 22.5 1.22396 22.2552 0.734375 21.7656C0.244792 21.276 0 20.6875 0 20V2.5C0 1.8125 0.244792 1.22396 0.734375 0.734375C1.22396 0.244791 1.8125 0 2.5 0H20C20.6875 0 21.276 0.244791 21.7656 0.734375C22.2552 1.22396 22.5 1.8125 22.5 2.5V20C22.5 20.6875 22.2552 21.276 21.7656 21.7656C21.276 22.2552 20.6875 22.5 20 22.5H2.5ZM2.5 20H20V2.5H2.5V20Z" fill="#0DCCF2"/>
</svg>
