<svg width="15" height="14" viewBox="0 0 15 14" fill="none" xmlns="http://www.w3.org/2000/svg">
<path d="M7.5 13.7625L6.4125 12.7875C5.15 11.65 4.10625 10.6687 3.28125 9.8437C2.45625 9.0187 1.8 8.27808 1.3125 7.62183C0.825 6.96558 0.484375 6.36245 0.290625 5.81245C0.096875 5.26245 0 4.69995 0 4.12495C0 2.94995 0.39375 1.9687 1.18125 1.1812C1.96875 0.393701 2.95 -4.95911e-05 4.125 -4.95911e-05C4.775 -4.95911e-05 5.39375 0.13745 5.98125 0.412451C6.56875 0.68745 7.075 1.07495 7.5 1.57495C7.925 1.07495 8.43125 0.68745 9.01875 0.412451C9.60625 0.13745 10.225 -4.95911e-05 10.875 -4.95911e-05C12.05 -4.95911e-05 13.0313 0.393701 13.8188 1.1812C14.6063 1.9687 15 2.94995 15 4.12495C15 4.69995 14.9031 5.26245 14.7094 5.81245C14.5156 6.36245 14.175 6.96558 13.6875 7.62183C13.2 8.27808 12.5438 9.0187 11.7188 9.8437C10.8938 10.6687 9.85 11.65 8.5875 12.7875L7.5 13.7625ZM7.5 11.7375C8.7 10.6625 9.6875 9.74058 10.4625 8.97183C11.2375 8.20308 11.85 7.53433 12.3 6.96558C12.75 6.39683 13.0625 5.89058 13.2375 5.44683C13.4125 5.00308 13.5 4.56245 13.5 4.12495C13.5 3.37495 13.25 2.74995 12.75 2.24995C12.25 1.74995 11.625 1.49995 10.875 1.49995C10.2875 1.49995 9.74375 1.66558 9.24375 1.99683C8.74375 2.32808 8.4 2.74995 8.2125 3.26245H6.7875C6.6 2.74995 6.25625 2.32808 5.75625 1.99683C5.25625 1.66558 4.7125 1.49995 4.125 1.49995C3.375 1.49995 2.75 1.74995 2.25 2.24995C1.75 2.74995 1.5 3.37495 1.5 4.12495C1.5 4.56245 1.5875 5.00308 1.7625 5.44683C1.9375 5.89058 2.25 6.39683 2.7 6.96558C3.15 7.53433 3.7625 8.20308 4.5375 8.97183C5.3125 9.74058 6.3 10.6625 7.5 11.7375Z" fill="#0DCCF2"/>
</svg>
