<svg width="16" height="21" viewBox="0 0 16 21" fill="currentColor" xmlns="http://www.w3.org/2000/svg">
<path d="M1.94444 20.4167C1.40972 20.4167 0.951968 20.2264 0.571181 19.8456C0.190394 19.4648 0 19.007 0 18.4723V8.75008C0 8.21536 0.190394 7.7576 0.571181 7.37682C0.951968 6.99603 1.40972 6.80564 1.94444 6.80564H2.91667V4.86119C2.91667 3.51628 3.39062 2.36987 4.33854 1.42196C5.28646 0.474037 6.43287 8.01086e-05 7.77778 8.01086e-05C9.12269 8.01086e-05 10.2691 0.474037 11.217 1.42196C12.1649 2.36987 12.6389 3.51628 12.6389 4.86119V6.80564H13.6111C14.1458 6.80564 14.6036 6.99603 14.9844 7.37682C15.3652 7.7576 15.5556 8.21536 15.5556 8.75008V18.4723C15.5556 19.007 15.3652 19.4648 14.9844 19.8456C14.6036 20.2264 14.1458 20.4167 13.6111 20.4167H1.94444ZM1.94444 18.4723H13.6111V8.75008H1.94444V18.4723ZM7.77778 15.5556C7.77778 15.5556 7.91146 15.5556 8.17882 15.5556C8.44618 15.5556 8.77026 15.3652 9.15104 14.9845C9.53183 14.6037 9.72222 14.1459 9.72222 13.6112C9.72222 13.0765 9.53183 12.6187 9.15104 12.2379C8.77026 11.8571 8.3125 11.6667 7.77778 11.6667C7.24306 11.6667 6.7853 11.8571 6.40451 12.2379C6.02373 12.6187 5.83333 13.0765 5.83333 13.6112C5.83333 14.1459 6.02373 14.6037 6.40451 14.9845C6.7853 15.3652 7.24306 15.5556 7.77778 15.5556ZM4.86111 6.80564H10.6944V4.86119C10.6944 4.05101 10.4109 3.36235 9.84375 2.79522C9.27662 2.22809 8.58796 1.94452 7.77778 1.94452C6.96759 1.94452 6.27894 2.22809 5.71181 2.79522C5.14468 3.36235 4.86111 4.05101 4.86111 4.86119V6.80564Z" />
</svg>
