<svg width="9" height="10" viewBox="0 0 9 10" fill="none" xmlns="http://www.w3.org/2000/svg">
<path d="M0.971413 9.71411C0.704275 9.71411 0.475588 9.61899 0.285353 9.42876C0.0951176 9.23852 0 9.00984 0 8.7427V1.9428C0 1.67567 0.0951176 1.44698 0.285353 1.25674C0.475588 1.06651 0.704275 0.971392 0.971413 0.971392H1.45712V-2.19345e-05H2.42853V0.971392H6.31419V-2.19345e-05H7.2856V0.971392H7.77131C8.03845 0.971392 8.26713 1.06651 8.45737 1.25674C8.6476 1.44698 8.74272 1.67567 8.74272 1.9428V8.7427C8.74272 9.00984 8.6476 9.23852 8.45737 9.42876C8.26713 9.61899 8.03845 9.71411 7.77131 9.71411H0.971413ZM0.971413 8.7427H7.77131V3.88563H0.971413V8.7427ZM0.971413 2.91422H7.77131V1.9428H0.971413V2.91422Z" fill="#94A3B8"/>
</svg>
