<svg width="20" height="20" viewBox="0 0 20 20" fill="currentColor" xmlns="http://www.w3.org/2000/svg">
<path d="M7.09722 19.4443L6.70833 16.3332C6.49769 16.2522 6.29919 16.155 6.11285 16.0416C5.92651 15.9281 5.74421 15.8066 5.56597 15.677L2.67361 16.8923L0 12.2742L2.50347 10.3784C2.48727 10.2649 2.47917 10.1556 2.47917 10.0502C2.47917 9.94491 2.47917 9.83554 2.47917 9.72211C2.47917 9.60869 2.47917 9.49931 2.47917 9.39399C2.47917 9.28866 2.48727 9.17929 2.50347 9.06586L0 7.17003L2.67361 2.55198L5.56597 3.76725C5.74421 3.63762 5.93056 3.5161 6.125 3.40267C6.31945 3.28924 6.51389 3.19202 6.70833 3.111L7.09722 -0.000108719H12.4444L12.8333 3.111C13.044 3.19202 13.2425 3.28924 13.4288 3.40267C13.6152 3.5161 13.7975 3.63762 13.9757 3.76725L16.8681 2.55198L19.5417 7.17003L17.0382 9.06586C17.0544 9.17929 17.0625 9.28866 17.0625 9.39399C17.0625 9.49931 17.0625 9.60869 17.0625 9.72211C17.0625 9.83554 17.0625 9.94491 17.0625 10.0502C17.0625 10.1556 17.0463 10.2649 17.0139 10.3784L19.5174 12.2742L16.8438 16.8923L13.9757 15.677C13.7975 15.8066 13.6111 15.9281 13.4167 16.0416C13.2222 16.155 13.0278 16.2522 12.8333 16.3332L12.4444 19.4443H7.09722ZM8.79861 17.4999H10.7188L11.059 14.9235C11.5613 14.7939 12.0272 14.6035 12.4566 14.3523C12.886 14.1012 13.2789 13.7973 13.6354 13.4409L16.0417 14.4374L16.9896 12.7846L14.8993 11.2048C14.9803 10.9779 15.037 10.7389 15.0694 10.4877C15.1019 10.2366 15.1181 9.98137 15.1181 9.72211C15.1181 9.46285 15.1019 9.20765 15.0694 8.95649C15.037 8.70533 14.9803 8.46633 14.8993 8.23947L16.9896 6.65961L16.0417 5.00684L13.6354 6.02767C13.2789 5.65498 12.886 5.34306 12.4566 5.09191C12.0272 4.84075 11.5613 4.65035 11.059 4.52072L10.7431 1.94434H8.82292L8.48264 4.52072C7.98032 4.65035 7.51447 4.84075 7.08507 5.09191C6.65567 5.34306 6.26273 5.64688 5.90625 6.00336L3.5 5.00684L2.55208 6.65961L4.64236 8.21517C4.56134 8.45822 4.50463 8.70128 4.47222 8.94434C4.43982 9.18739 4.42361 9.44665 4.42361 9.72211C4.42361 9.98137 4.43982 10.2325 4.47222 10.4756C4.50463 10.7186 4.56134 10.9617 4.64236 11.2048L2.55208 12.7846L3.5 14.4374L5.90625 13.4166C6.26273 13.7892 6.65567 14.1012 7.08507 14.3523C7.51447 14.6035 7.98032 14.7939 8.48264 14.9235L8.79861 17.4999ZM9.81945 13.1249C10.7593 13.1249 11.5613 12.7927 12.2257 12.1284C12.89 11.464 13.2222 10.6619 13.2222 9.72211C13.2222 8.7823 12.89 7.98022 12.2257 7.31586C11.5613 6.65151 10.7593 6.31934 9.81945 6.31934C8.86343 6.31934 8.05729 6.65151 7.40104 7.31586C6.74479 7.98022 6.41667 8.7823 6.41667 9.72211C6.41667 10.6619 6.74479 11.464 7.40104 12.1284C8.05729 12.7927 8.86343 13.1249 9.81945 13.1249Z"/>
</svg>
