<svg width="20" height="21" viewBox="0 0 20 21" fill="currentColor" xmlns="http://www.w3.org/2000/svg">
<path d="M1.57986 12.6633L0 11.5209L4.86111 3.74314L7.77778 7.14591L11.6667 0.826468L14.5833 5.20147L17.8646 8.01086e-05L19.4444 1.14244L14.6319 8.77439L11.7396 4.42369L8.04514 10.4272L5.10417 7.00008L1.57986 12.6633ZM13.125 16.5279C13.8056 16.5279 14.3808 16.2929 14.8507 15.823C15.3206 15.3531 15.5556 14.7779 15.5556 14.0973C15.5556 13.4167 15.3206 12.8415 14.8507 12.3716C14.3808 11.9017 13.8056 11.6667 13.125 11.6667C12.4444 11.6667 11.8692 11.9017 11.3993 12.3716C10.9294 12.8415 10.6944 13.4167 10.6944 14.0973C10.6944 14.7779 10.9294 15.3531 11.3993 15.823C11.8692 16.2929 12.4444 16.5279 13.125 16.5279ZM18.0833 20.4167L15.4583 17.7917C15.1181 18.0186 14.7494 18.1887 14.3524 18.3022C13.9554 18.4156 13.5463 18.4723 13.125 18.4723C11.9097 18.4723 10.8767 18.047 10.026 17.1963C9.17535 16.3456 8.75 15.3126 8.75 14.0973C8.75 12.882 9.17535 11.849 10.026 10.9983C10.8767 10.1476 11.9097 9.7223 13.125 9.7223C14.3403 9.7223 15.3733 10.1476 16.224 10.9983C17.0747 11.849 17.5 12.882 17.5 14.0973C17.5 14.5186 17.4433 14.9277 17.3299 15.3247C17.2164 15.7217 17.0463 16.0904 16.8194 16.4306L19.4444 19.0556L18.0833 20.4167Z"/>
</svg>
